<svg id="Layer_1" data-name="Layer 1" xmlns="http://www.w3.org/2000/svg" viewBox="0 0 120.72 30.88"><defs><style>.cls-1,.cls-2,.cls-3,.cls-4{fill-rule:evenodd;}.cls-2{fill:#00a893;}.cls-3{fill:#bcbec0;}.cls-4{fill:#fff;}</style></defs><title>AMGlogo2</title><path class="cls-1" d="M67.63,26.26s-.06,0,0,.06h.06S67.67,26.27,67.63,26.26Z" transform="translate(-7.28 -10.99)"/><path class="cls-1" d="M67.65,27.58s0,0,0,0Z" transform="translate(-7.28 -10.99)"/><path class="cls-2" d="M92.72,11.68,86.93,22.61h-.06l-.94-10.68h-.09l-7.91-.18H77.8L70,32.16l0,0L67.09,11.89l-9.32,0L44.68,35h8.61l1.42-2.69h0l6.19.1.4,2.73,15-.16,4.2-11.4c0-.08.12-.11.24-.06h0l1.08,11.47,4.84,0,.08-.17,6.17-11.48h0L91.83,34.94v.11H92l7.32-.21L100.7,12C99.81,11.93,92.73,11.66,92.72,11.68ZM61,26.46c.08-.19-.13-7.08-.13-7.08s-3.29,7-3.3,7.07Z" transform="translate(-7.28 -10.99)"/><path class="cls-3" d="M37.72,32.26l-16-14.75,24.3-.13Zm1.44,9.1L55.81,11.63l-48.53.25Z" transform="translate(-7.28 -10.99)"/><path class="cls-3" d="M43.79,36.71l0,0L41,41.81l0,.07,82.85-.08L127,36.46h-.08Z" transform="translate(-7.28 -10.99)"/><path class="cls-2" d="M111.51,12.52c-5.64,2.75-10.39,9-9.07,15.58.65,3.28,2.68,6.2,6,6.94a17.78,17.78,0,0,0,8.27,0c6.17-1.52,11.23-7.17,11.31-13.72a0,0,0,0,0,0,0l-12.27-.05a0,0,0,0,0,0,0v0l-1.26,5.19a0,0,0,0,0,0,0l3.29.17h0a.58.58,0,0,1,0,.14c-4.1,5.08-8.48.39-6.61-3.77,3.31-8.24,8.9-4.46,8.55-3.28,0,0,0,0,0,0l8.2-3.08v-.05a.86.86,0,0,0-.14-.46C124.64,10.3,116.83,9.93,111.51,12.52Z" transform="translate(-7.28 -10.99)"/><path class="cls-4" d="M50.43,40.3v.05a0,0,0,0,0,0,0l0,0,0,0s0,0-.1.08a1.09,1.09,0,0,1-.19.1l-.27.09a1.69,1.69,0,0,1-.33,0,1.29,1.29,0,0,1-.53-.1,1.12,1.12,0,0,1-.41-.3,1.38,1.38,0,0,1-.26-.48,2.29,2.29,0,0,1-.09-.66,2.32,2.32,0,0,1,.1-.68,1.35,1.35,0,0,1,.27-.52,1.3,1.3,0,0,1,.42-.32,1.33,1.33,0,0,1,.54-.11l.27,0a1.4,1.4,0,0,1,.24.06,1.24,1.24,0,0,1,.2.1.48.48,0,0,1,.12.08l0,0a0,0,0,0,1,0,0,.06.06,0,0,1,0,0v.11s0,0,0,.05l0,0h0a.15.15,0,0,1-.1,0L50.09,38a1.08,1.08,0,0,0-.24-.1.92.92,0,0,0-.35,0,1.06,1.06,0,0,0-.4.08,1,1,0,0,0-.31.26,1.38,1.38,0,0,0-.21.42,2.49,2.49,0,0,0-.07.58,1.88,1.88,0,0,0,.07.55,1.14,1.14,0,0,0,.19.4.78.78,0,0,0,.32.25,1,1,0,0,0,.42.09,1.11,1.11,0,0,0,.34,0,1.17,1.17,0,0,0,.25-.11.83.83,0,0,0,.17-.11l.1-.05h0s0,0,0,0a.06.06,0,0,1,0,0A.15.15,0,0,1,50.43,40.3Z" transform="translate(-7.28 -10.99)"/><path class="cls-4" d="M56.33,39.16a2.78,2.78,0,0,0,0-.52,1.32,1.32,0,0,0-.17-.42.79.79,0,0,0-.32-.28,1,1,0,0,0-.49-.11,1,1,0,0,0-.48.11.89.89,0,0,0-.32.29,1,1,0,0,0-.18.42,2.1,2.1,0,0,0-.06.51,2.78,2.78,0,0,0,.05.52,1.29,1.29,0,0,0,.17.43.84.84,0,0,0,.31.28,1.09,1.09,0,0,0,.5.1.94.94,0,0,0,.49-.11.89.89,0,0,0,.32-.29,1.3,1.3,0,0,0,.18-.43A2.73,2.73,0,0,0,56.33,39.16Zm.31,0a2.32,2.32,0,0,1-.08.67,1.34,1.34,0,0,1-.26.52,1.1,1.1,0,0,1-.43.33,1.57,1.57,0,0,1-.6.11,1.4,1.4,0,0,1-.6-.11,1,1,0,0,1-.41-.31,1.44,1.44,0,0,1-.23-.5,2.59,2.59,0,0,1-.08-.66,2.29,2.29,0,0,1,.09-.66,1.35,1.35,0,0,1,.25-.51,1.13,1.13,0,0,1,.43-.32,1.44,1.44,0,0,1,.61-.12,1.55,1.55,0,0,1,.59.11,1,1,0,0,1,.41.31,1.6,1.6,0,0,1,.24.49A2.59,2.59,0,0,1,56.64,39.13Z" transform="translate(-7.28 -10.99)"/><path class="cls-4" d="M62.76,40.58a.15.15,0,0,1,0,.07.1.1,0,0,1,0,.05l0,0h-.2l-.07,0-.08-.08-.08-.13-1.1-1.95L61,38.23l-.16-.29h0v2.73a0,0,0,0,1,0,0l0,0h-.23l0,0V37.76c0-.06,0-.1,0-.12a.16.16,0,0,1,.09,0h.22l.07,0,.06.07.06.1.84,1.49a2.52,2.52,0,0,1,.15.27l.14.25.14.25c0,.08.08.16.13.24h0V37.64l0,0h.23l0,0a0,0,0,0,1,0,0Z" transform="translate(-7.28 -10.99)"/><path class="cls-4" d="M68.41,39.88a.87.87,0,0,1-.08.37.83.83,0,0,1-.21.28,1,1,0,0,1-.32.17,1.25,1.25,0,0,1-.4.06,1.27,1.27,0,0,1-.28,0,1.4,1.4,0,0,1-.24-.06l-.17-.08-.1-.07,0-.06a.28.28,0,0,1,0-.09.15.15,0,0,1,0-.07s0,0,0,0,0,0,0,0h0a.16.16,0,0,1,.09,0l.16.09.24.09a1,1,0,0,0,.31,0,.77.77,0,0,0,.27,0,.53.53,0,0,0,.21-.11.49.49,0,0,0,.14-.18.7.7,0,0,0,0-.25.49.49,0,0,0-.06-.25.58.58,0,0,0-.17-.18,1.28,1.28,0,0,0-.23-.14l-.27-.13-.26-.14a1.37,1.37,0,0,1-.23-.17.81.81,0,0,1-.17-.24.88.88,0,0,1,0-.64.65.65,0,0,1,.19-.24.85.85,0,0,1,.28-.16,1.36,1.36,0,0,1,.36,0l.2,0,.19,0a.59.59,0,0,1,.16.07.29.29,0,0,1,.1.06l0,0a0,0,0,0,0,0,0v0a.07.07,0,0,1,0,.05.13.13,0,0,1,0,.06s0,0,0,0l0,0s0,0,0,0l-.08,0L68,38l-.19-.08a1,1,0,0,0-.26,0,.93.93,0,0,0-.25,0,.54.54,0,0,0-.28.26.58.58,0,0,0,0,.19.49.49,0,0,0,.06.25.58.58,0,0,0,.17.18,1.28,1.28,0,0,0,.23.14l.27.13.26.14a1,1,0,0,1,.24.17.73.73,0,0,1,.16.23A.66.66,0,0,1,68.41,39.88Z" transform="translate(-7.28 -10.99)"/><path class="cls-4" d="M74.09,37.75s0,0,0,0,0,0,0,0l0,0h-1V40.7l0,0h-.23l0,0a0,0,0,0,1,0,0v-2.8h-1a0,0,0,0,1,0,0s0,0,0,0v-.11l0,0a0,0,0,0,1,0,0H74l0,0s0,0,0,0A.35.35,0,0,1,74.09,37.75Z" transform="translate(-7.28 -10.99)"/><path class="cls-4" d="M79.18,38.44a.58.58,0,0,0-.09-.33.48.48,0,0,0-.3-.2l-.15,0H78V39h.45a1,1,0,0,0,.31,0,.72.72,0,0,0,.21-.12.46.46,0,0,0,.13-.18A.85.85,0,0,0,79.18,38.44Zm.51,2.23v0l0,0h-.23l0,0,0,0-.29-.75a1.33,1.33,0,0,0-.11-.24.72.72,0,0,0-.14-.2.64.64,0,0,0-.19-.13.78.78,0,0,0-.28,0H78v1.4a0,0,0,0,1,0,0l0,0h-.23l0,0s0,0,0,0V37.76a.14.14,0,0,1,.05-.12.16.16,0,0,1,.09,0h.91a1.25,1.25,0,0,1,.31.1.79.79,0,0,1,.22.18.58.58,0,0,1,.13.23.77.77,0,0,1,0,.27.79.79,0,0,1,0,.28.72.72,0,0,1-.12.21,1,1,0,0,1-.19.16,1.15,1.15,0,0,1-.25.12.71.71,0,0,1,.15.08.69.69,0,0,1,.11.13s.07.11.11.17l.09.22.29.73a.51.51,0,0,1,0,.11A.11.11,0,0,1,79.69,40.67Z" transform="translate(-7.28 -10.99)"/><path class="cls-4" d="M85.76,39.58a1.54,1.54,0,0,1-.08.5,1.06,1.06,0,0,1-.23.37.86.86,0,0,1-.36.23,1.21,1.21,0,0,1-.48.08,1.27,1.27,0,0,1-.44-.07,1,1,0,0,1-.57-.58,1.54,1.54,0,0,1-.08-.5v-2a0,0,0,0,1,0,0s0,0,0,0h.23l0,0v1.93a1.28,1.28,0,0,0,.05.41.78.78,0,0,0,.42.47,1,1,0,0,0,.35.06,1,1,0,0,0,.35-.06.65.65,0,0,0,.26-.17.81.81,0,0,0,.16-.29,1.22,1.22,0,0,0,0-.4V37.63l0,0h.23s0,0,0,0a0,0,0,0,1,0,0Z" transform="translate(-7.28 -10.99)"/><path class="cls-4" d="M91.86,40.3v.05s0,0,0,0,0,0,0,0l0,0-.1.08-.2.1-.27.09a1.69,1.69,0,0,1-.33,0,1.29,1.29,0,0,1-.53-.1,1.12,1.12,0,0,1-.41-.3,1.37,1.37,0,0,1-.25-.48,2.29,2.29,0,0,1-.09-.66,2.33,2.33,0,0,1,.09-.68A1.7,1.7,0,0,1,90,38a1.3,1.3,0,0,1,.42-.32,1.33,1.33,0,0,1,.54-.11l.27,0a1.4,1.4,0,0,1,.24.06.93.93,0,0,1,.2.1.48.48,0,0,1,.12.08l0,0,0,0v0s0,0,0,.05a.35.35,0,0,1,0,.06.09.09,0,0,1,0,.05l0,0h0a.14.14,0,0,1-.09,0L91.52,38a.91.91,0,0,0-.24-.1.9.9,0,0,0-.34,0,1.11,1.11,0,0,0-.41.08,1,1,0,0,0-.31.26,1.36,1.36,0,0,0-.2.42,2,2,0,0,0-.08.58,2.29,2.29,0,0,0,.07.55,1.16,1.16,0,0,0,.2.4.75.75,0,0,0,.31.25,1,1,0,0,0,.43.09,1.16,1.16,0,0,0,.34,0,1.08,1.08,0,0,0,.24-.11.83.83,0,0,0,.17-.11.25.25,0,0,1,.11-.05h0s0,0,0,0a.06.06,0,0,0,0,0Z" transform="translate(-7.28 -10.99)"/><path class="cls-4" d="M97.53,37.75v0l0,0,0,0h-1v2.8a0,0,0,0,1,0,0l0,0h-.23l0,0V37.87h-1l0,0s0,0,0,0a.09.09,0,0,1,0,0s0,0,0-.06,0,0,0,0l0,0h2.21l0,0,0,0Z" transform="translate(-7.28 -10.99)"/><path class="cls-4" d="M101.48,40.67v0l0,0h-.23l0,0a0,0,0,0,1,0,0v-3a0,0,0,0,1,0,0s0,0,0,0h.22l0,0v3Z" transform="translate(-7.28 -10.99)"/><path class="cls-4" d="M107.75,39.16a2.78,2.78,0,0,0,0-.52,1.33,1.33,0,0,0-.18-.42.7.7,0,0,0-.31-.28,1,1,0,0,0-.49-.11,1.07,1.07,0,0,0-.49.11.89.89,0,0,0-.32.29,1.33,1.33,0,0,0-.18.42,2.68,2.68,0,0,0,0,1,1.11,1.11,0,0,0,.17.43.77.77,0,0,0,.31.28,1,1,0,0,0,.49.1,1,1,0,0,0,.5-.11.89.89,0,0,0,.32-.29,1.11,1.11,0,0,0,.17-.43A2.07,2.07,0,0,0,107.75,39.16Zm.31,0a2.31,2.31,0,0,1-.09.67,1.33,1.33,0,0,1-.25.52,1.27,1.27,0,0,1-.43.33,1.66,1.66,0,0,1-.61.11,1.32,1.32,0,0,1-.59-.11.92.92,0,0,1-.41-.31,1.29,1.29,0,0,1-.24-.5,2.62,2.62,0,0,1-.07-.66,2.3,2.3,0,0,1,.08-.66,1.37,1.37,0,0,1,.26-.51,1.06,1.06,0,0,1,.43-.32,1.4,1.4,0,0,1,.6-.12,1.48,1.48,0,0,1,.59.11,1,1,0,0,1,.41.31,1.25,1.25,0,0,1,.24.49A2.57,2.57,0,0,1,108.06,39.13Z" transform="translate(-7.28 -10.99)"/><path class="cls-4" d="M114.18,40.58a.14.14,0,0,1,0,.07l0,.05,0,0h-.19l-.08,0-.07-.08-.09-.13-1.09-1.95c-.06-.09-.11-.19-.17-.29l-.15-.29h0c0,.12,0,.24,0,.36v2.37s0,0,0,0l0,0H112l0,0a0,0,0,0,1,0,0V37.76a.14.14,0,0,1,0-.12.16.16,0,0,1,.09,0h.21l.07,0,.06.07a.86.86,0,0,1,.07.1l.84,1.49c0,.1.1.18.15.27l.14.25c0,.09.09.17.13.25s.09.16.13.24h0V37.67a0,0,0,0,1,0,0l0,0h.23l0,0s0,0,0,0Z" transform="translate(-7.28 -10.99)"/><path class="cls-4" d="M119.82,39.88a.87.87,0,0,1-.07.37.83.83,0,0,1-.21.28,1.09,1.09,0,0,1-.32.17,1.29,1.29,0,0,1-.4.06,1.36,1.36,0,0,1-.29,0,1.55,1.55,0,0,1-.23-.06l-.18-.08s-.08-.05-.09-.07l0-.06a.28.28,0,0,1,0-.09V40.3s0,0,0,0l0,0h0a.16.16,0,0,1,.1,0l.16.09.23.09a1,1,0,0,0,.32,0,.84.84,0,0,0,.27,0,.53.53,0,0,0,.21-.11.62.62,0,0,0,.14-.18.7.7,0,0,0,0-.25.49.49,0,0,0-.07-.25.55.55,0,0,0-.16-.18l-.23-.14-.27-.13-.27-.14-.23-.17a.78.78,0,0,1-.16-.24.88.88,0,0,1,0-.64.55.55,0,0,1,.18-.24.9.9,0,0,1,.29-.16,1.36,1.36,0,0,1,.36,0l.2,0,.19,0,.16.07a.17.17,0,0,1,.09.06s0,0,0,0a0,0,0,0,1,0,0s0,0,0,0V38s0,0,0,0l0,0h0l-.08,0a.74.74,0,0,0-.13-.08,1.06,1.06,0,0,0-.45-.12.87.87,0,0,0-.25,0,.54.54,0,0,0-.18.11.4.4,0,0,0-.1.15.58.58,0,0,0,0,.19.41.41,0,0,0,.07.25.55.55,0,0,0,.16.18,1.38,1.38,0,0,0,.24.14l.26.13.27.14a.81.81,0,0,1,.23.17.76.76,0,0,1,.17.23A.79.79,0,0,1,119.82,39.88Z" transform="translate(-7.28 -10.99)"/></svg>